<svg width="22" height="22" viewBox="0 0 22 22" fill="none" xmlns="http://www.w3.org/2000/svg">
<path d="M11.0704 21.5C16.8694 21.5 21.5704 16.799 21.5704 11C21.5704 5.201 16.8694 0.5 11.0704 0.5C5.27145 0.5 0.570446 5.201 0.570446 11C0.570446 16.799 5.27145 21.5 11.0704 21.5Z" fill="url(#paint0_radial_13_112)"/>
<path d="M11.0704 21.5C16.8694 21.5 21.5704 16.799 21.5704 11C21.5704 5.201 16.8694 0.5 11.0704 0.5C5.27145 0.5 0.570446 5.201 0.570446 11C0.570446 16.799 5.27145 21.5 11.0704 21.5Z" fill="url(#paint1_radial_13_112)"/>
<path d="M11.0704 21.5C16.8694 21.5 21.5704 16.799 21.5704 11C21.5704 5.201 16.8694 0.5 11.0704 0.5C5.27145 0.5 0.570446 5.201 0.570446 11C0.570446 16.799 5.27145 21.5 11.0704 21.5Z" fill="url(#paint2_radial_13_112)"/>
<path d="M11.0704 21.5C16.8694 21.5 21.5704 16.799 21.5704 11C21.5704 5.201 16.8694 0.5 11.0704 0.5C5.27145 0.5 0.570446 5.201 0.570446 11C0.570446 16.799 5.27145 21.5 11.0704 21.5Z" fill="url(#paint3_radial_13_112)"/>
<g filter="url(#filter0_ii_13_112)">
<path d="M0.592251 10.3175C0.574658 10.5894 0.567653 10.8618 0.571251 11.1342C0.831571 11.0332 1.08869 10.9242 1.34225 10.8072C2.165 10.4292 3.2405 9.83825 4.23575 8.9885C4.96325 8.3675 5.65325 7.604 6.16775 6.67925C6.76775 6.99275 7.34075 7.31625 7.88675 7.64975C6.59525 9.168 5.55831 10.8855 4.81625 12.7355C4.18872 14.2991 3.78572 15.9437 3.61925 17.6202C3.59425 17.8837 3.57675 18.125 3.56675 18.344C3.79975 18.5825 4.044 18.8097 4.2995 19.0257C4.29949 18.5804 4.32152 18.1354 4.3655 17.6922C4.48025 16.502 4.778 14.8497 5.513 13.0145C6.23848 11.2057 7.25769 9.52915 8.5295 8.0525C9.28716 8.54067 10.0212 9.06451 10.7293 9.62225C10.2516 10.1578 9.84452 10.7524 9.518 11.3915C7.9025 14.5385 8.12975 18.7565 10.4675 21.4827C10.8142 21.5027 11.1616 21.5055 11.5085 21.491C8.97275 19.0775 8.576 14.8662 10.1855 11.7335C10.4908 11.1387 10.8673 10.586 11.3128 10.0947C12.6757 11.2271 13.9258 12.4887 15.0455 13.862C16.1053 15.1541 17.0315 16.5502 17.81 18.029C17.9475 18.293 18.0655 18.5305 18.164 18.7415C18.359 18.563 18.5473 18.377 18.7288 18.1835C18.6465 18.0151 18.562 17.8479 18.4753 17.6817C17.6732 16.158 16.7188 14.7194 15.6268 13.388C14.6218 12.1542 13.3768 10.8425 11.8483 9.56525C12.5729 8.92084 13.4285 8.44109 14.3563 8.159C16.184 7.5995 18.5225 7.7015 21.3613 8.903C21.2995 8.59983 21.2245 8.29953 21.1363 8.003C18.3988 6.9455 16.0513 6.8555 14.1365 7.442C13.0667 7.76757 12.0837 8.32941 11.2603 9.086C10.5437 8.51825 9.80084 7.98442 9.03425 7.48625C10.838 5.546 13.3243 3.68075 16.754 2.1695C16.4959 2.0032 16.2307 1.8483 15.959 1.70525C12.626 3.24575 10.181 5.12375 8.39 7.07825C7.79 6.70875 7.1595 6.35125 6.4985 6.00575C6.5565 5.86925 6.6105 5.72975 6.6605 5.58725C7.0805 4.39175 7.19675 2.9975 6.83375 1.3895C6.59725 1.4945 6.36575 1.607 6.13925 1.727C6.4265 3.1325 6.308 4.32725 5.95325 5.339C5.91444 5.4492 5.87243 5.55825 5.82725 5.666C4.87239 5.19859 3.8955 4.7776 2.9 4.4045C2.7365 4.6075 2.58025 4.81625 2.43125 5.03075C3.47565 5.41405 4.49952 5.85113 5.49875 6.34025C5.0375 7.1585 4.41875 7.84625 3.749 8.41775C2.822 9.209 1.81175 9.76625 1.02875 10.1262C0.872751 10.1977 0.727251 10.2615 0.592251 10.3175Z" fill="#4D3A45"/>
</g>
<defs>
<filter id="filter0_ii_13_112" x="0.570335" y="1.3395" width="20.7909" height="20.2106" filterUnits="userSpaceOnUse" color-interpolation-filters="sRGB">
<feFlood flood-opacity="0" result="BackgroundImageFix"/>
<feBlend mode="normal" in="SourceGraphic" in2="BackgroundImageFix" result="shape"/>
<feColorMatrix in="SourceAlpha" type="matrix" values="0 0 0 0 0 0 0 0 0 0 0 0 0 0 0 0 0 0 127 0" result="hardAlpha"/>
<feOffset dy="0.1"/>
<feGaussianBlur stdDeviation="0.025"/>
<feComposite in2="hardAlpha" operator="arithmetic" k2="-1" k3="1"/>
<feColorMatrix type="matrix" values="0 0 0 0 0.266667 0 0 0 0 0.172549 0 0 0 0 0.25098 0 0 0 1 0"/>
<feBlend mode="normal" in2="shape" result="effect1_innerShadow_13_112"/>
<feColorMatrix in="SourceAlpha" type="matrix" values="0 0 0 0 0 0 0 0 0 0 0 0 0 0 0 0 0 0 127 0" result="hardAlpha"/>
<feOffset dy="-0.1"/>
<feGaussianBlur stdDeviation="0.025"/>
<feComposite in2="hardAlpha" operator="arithmetic" k2="-1" k3="1"/>
<feColorMatrix type="matrix" values="0 0 0 0 0.356863 0 0 0 0 0.294118 0 0 0 0 0.305882 0 0 0 1 0"/>
<feBlend mode="normal" in2="effect1_innerShadow_13_112" result="effect2_innerShadow_13_112"/>
</filter>
<radialGradient id="paint0_radial_13_112" cx="0" cy="0" r="1" gradientUnits="userSpaceOnUse" gradientTransform="translate(17.152 6.76887) rotate(138.691) scale(14.0092)">
<stop stop-color="#FFA167"/>
<stop offset="0.554" stop-color="#FF7D31"/>
<stop offset="1" stop-color="#EC5B36"/>
</radialGradient>
<radialGradient id="paint1_radial_13_112" cx="0" cy="0" r="1" gradientUnits="userSpaceOnUse" gradientTransform="translate(12.8464 8.045) rotate(99.462) scale(14.5477 19.185)">
<stop offset="0.466" stop-color="#D73853" stop-opacity="0"/>
<stop offset="1" stop-color="#D75B8F"/>
</radialGradient>
<radialGradient id="paint2_radial_13_112" cx="0" cy="0" r="1" gradientUnits="userSpaceOnUse" gradientTransform="translate(11.0697 7.36475) rotate(90) scale(14.1355)">
<stop offset="0.895" stop-color="#D85C90" stop-opacity="0"/>
<stop offset="1" stop-color="#D85C90"/>
</radialGradient>
<radialGradient id="paint3_radial_13_112" cx="0" cy="0" r="1" gradientUnits="userSpaceOnUse" gradientTransform="translate(12.3502 12.6699) rotate(-144.333) scale(12.5642 14.7777)">
<stop offset="0.858" stop-color="#E07162" stop-opacity="0"/>
<stop offset="1" stop-color="#E07162"/>
</radialGradient>
</defs>
</svg>
