<svg width="18" height="20" viewBox="0 0 18 20" fill="none" xmlns="http://www.w3.org/2000/svg">
<path d="M3.58335 19.75C2.98751 19.75 2.47762 19.538 2.05368 19.1141C1.62974 18.6901 1.4174 18.1799 1.41668 17.5833V3.5C1.10974 3.5 0.852625 3.396 0.645347 3.188C0.43807 2.98 0.334069 2.72289 0.333347 2.41667C0.332625 2.11044 0.436625 1.85333 0.645347 1.64533C0.85407 1.43733 1.11118 1.33333 1.41668 1.33333H5.75001C5.75001 1.02639 5.85401 0.769278 6.06201 0.562C6.27001 0.354722 6.52712 0.250722 6.83335 0.25H11.1667C11.4736 0.25 11.7311 0.354 11.9391 0.562C12.1471 0.77 12.2507 1.02711 12.25 1.33333H16.5833C16.8903 1.33333 17.1478 1.43733 17.3558 1.64533C17.5638 1.85333 17.6674 2.11044 17.6667 2.41667C17.666 2.72289 17.562 2.98036 17.3547 3.18908C17.1474 3.39781 16.8903 3.50144 16.5833 3.5V17.5833C16.5833 18.1792 16.3714 18.6894 15.9474 19.1141C15.5235 19.5388 15.0132 19.7507 14.4167 19.75H3.58335ZM14.4167 3.5H3.58335V17.5833H14.4167V3.5ZM6.83335 15.4167C7.14029 15.4167 7.39776 15.3127 7.60576 15.1047C7.81376 14.8967 7.9174 14.6396 7.91668 14.3333V6.75C7.91668 6.44306 7.81268 6.18594 7.60468 5.97867C7.39668 5.77139 7.13957 5.66739 6.83335 5.66667C6.52712 5.66594 6.27001 5.76994 6.06201 5.97867C5.85401 6.18739 5.75001 6.4445 5.75001 6.75V14.3333C5.75001 14.6403 5.85401 14.8977 6.06201 15.1058C6.27001 15.3138 6.52712 15.4174 6.83335 15.4167ZM11.1667 15.4167C11.4736 15.4167 11.7311 15.3127 11.9391 15.1047C12.1471 14.8967 12.2507 14.6396 12.25 14.3333V6.75C12.25 6.44306 12.146 6.18594 11.938 5.97867C11.73 5.77139 11.4729 5.66739 11.1667 5.66667C10.8605 5.66594 10.6033 5.76994 10.3953 5.97867C10.1873 6.18739 10.0833 6.4445 10.0833 6.75V14.3333C10.0833 14.6403 10.1873 14.8977 10.3953 15.1058C10.6033 15.3138 10.8605 15.4174 11.1667 15.4167Z" fill="#E07162"/>
</svg>
