<svg width="23" height="24" viewBox="0 0 23 24" fill="none" xmlns="http://www.w3.org/2000/svg">
<path d="M9.00687 6.13501C8.94875 6.28126 9.02562 11.5031 9.14375 11.6588C9.26187 11.8144 14.5119 13.5975 14.7462 13.5394C14.9806 13.4813 17.7819 9.07313 17.7819 8.89688C17.7819 8.72063 14.3356 4.47001 14.1594 4.43063C13.9831 4.39126 9.08562 5.93813 9.00687 6.13501ZM21.005 6.77626C21.005 6.77626 20.2325 9.34688 20.2325 9.54376C20.2325 9.73876 20.7031 10.8169 20.9187 12.1481C21.1344 13.4794 20.8212 15.4781 20.9581 15.5569C21.095 15.6356 21.7737 15.5963 21.7737 15.5963C21.7737 15.5963 22.4281 13.5394 22.1525 10.8956C21.8769 8.25001 21.005 6.77626 21.005 6.77626ZM15.4325 17.0063C15.275 17.0213 11.1425 20.5706 11.1612 20.67C11.18 20.7675 12.7794 23.1244 12.7794 23.1244C12.7794 23.1244 14.7894 22.965 16.6306 21.9675C18.4719 20.97 19.1712 20.0831 19.1712 20.0831C19.1712 20.0831 19.4262 17.7131 19.3287 17.6944C19.2331 17.6719 15.6294 16.9875 15.4325 17.0063ZM1.64187 12.5794C1.535 12.6675 0.916247 14.0288 0.739997 14.7938C0.563747 15.5569 0.466248 16.2825 0.466248 16.2825C0.466248 16.2825 0.936873 17.6438 1.64187 18.6525C2.51562 19.9013 3.65187 20.7825 3.65187 20.7825C3.65187 20.7825 7.36062 19.6519 7.38125 19.4944C7.40187 19.3369 6.95 17.9663 6.63687 16.83C6.32375 15.6938 6.26562 14.4206 6.1475 14.3419C6.02937 14.2631 4.835 13.8919 3.89562 13.5188C2.95625 13.1456 1.76 12.4819 1.64187 12.5794ZM0.479373 7.85251C0.479373 7.85251 1.505 8.73938 1.6625 8.73938C1.82 8.73938 2.81375 7.42313 3.81687 6.62438C5.16875 5.54626 5.83437 5.19376 5.855 5.05688C5.87375 4.92001 6.4625 1.64813 6.4625 1.64813C6.4625 1.64813 4.2875 2.47126 2.70125 4.29188C1.115 6.11251 0.479373 7.85251 0.479373 7.85251ZM11.5719 0.774384C11.5719 0.774384 12.8225 1.41751 13.2781 1.73438C13.7337 2.05126 14.405 2.72251 14.6037 2.74313C14.8006 2.76376 17.5212 2.76563 17.5212 2.76563C17.5212 2.76563 16.2875 1.92188 14.9206 1.43813C13.2762 0.855009 11.5719 0.774384 11.5719 0.774384Z" fill="#474C4F"/>
</svg>
