<svg width="23" height="23" viewBox="0 0 23 23" fill="none" xmlns="http://www.w3.org/2000/svg">
<path d="M11.4563 0.00113988C4.72392 -0.0926101 -0.276091 5.61114 0.0593915 11.7105C0.455526 18.8936 5.64697 22.503 11.7198 22.4618C18.0996 22.4186 22.9404 17.9449 22.8077 11.1874C22.677 4.44114 17.6618 0.0892649 11.4563 0.00113988Z" fill="#C8C8C8"/>
<path d="M6.13219 2.09179C1.42027 4.76366 -1.57064 12.3368 3.44833 18.0668C4.06243 18.768 5.03855 19.2574 5.77964 19.5912C10.8403 21.8543 16.9643 18.3743 19.3335 15.7212C21.2137 13.6155 21.9055 12.2187 21.6819 9.34429C21.5094 7.10929 20.5428 4.95116 18.5393 3.35554C14.0094 -0.259463 9.12499 0.393036 6.13219 2.09179Z" fill="white"/>
<path d="M10.8782 6.70052C10.8612 6.69114 9.10796 5.69552 7.74708 5.19677C6.32933 4.67739 5.28308 4.39802 5.27171 4.39614L5.46693 3.67239C5.51053 3.68364 6.55678 3.96114 8.01053 4.49552C9.43207 5.01677 11.1834 6.01052 11.2573 6.05364L10.8782 6.70052ZM13.9615 4.74377L14.9931 1.10214L15.7232 1.30445L14.6918 4.94608L13.9615 4.74377ZM21.6251 9.46239C21.6156 9.45864 20.6072 9.07989 19.4814 8.77802C18.6341 8.55114 17.5424 8.32052 17.531 8.31864L17.6883 7.58552C17.7338 7.59489 18.8104 7.82177 19.6785 8.05427C20.8442 8.36552 21.8525 8.74614 21.8961 8.76114L21.6251 9.46239ZM15.6603 16.8199C15.6603 16.8086 15.5655 15.6649 15.3381 14.4949C15.1125 13.3399 14.6823 12.2524 14.6785 12.243L15.3836 11.9674C15.4025 12.0143 15.8441 13.128 16.083 14.3543C16.318 15.5674 16.4128 16.713 16.4165 16.7618L15.6603 16.8199ZM19.4302 17.8624L18.9298 17.298C18.9374 17.2924 19.6652 16.6549 20.5636 15.4549C21.3938 14.3449 21.7767 13.3736 21.7805 13.3624L22.4875 13.6305C22.4704 13.6736 22.0629 14.7086 21.1721 15.8993C20.2225 17.1705 19.4624 17.8343 19.4302 17.8624ZM5.56113 14.0299L9.94761 10.1567L10.4525 10.7162L6.06587 14.5894L5.56113 14.0299ZM1.78231 12.993C1.77094 12.9199 1.52075 11.1855 1.52075 9.59927C1.52075 8.01677 1.70271 6.55239 1.71219 6.49052L2.46465 6.58427C2.46276 6.59927 2.2808 8.06552 2.2808 9.59927C2.2808 11.1293 2.53288 12.8693 2.53478 12.8861L1.78231 12.993ZM12.8494 20.5493C12.8021 20.5436 11.6459 20.3993 9.64625 19.818C8.37255 19.4468 6.9169 18.6855 6.85435 18.6536L7.21068 17.9918C7.22585 17.9993 8.66065 18.7511 9.86043 19.0999C11.7937 19.6624 12.9309 19.8049 12.9423 19.8068L12.8494 20.5493Z" fill="#171717"/>
<path d="M9.45096 5.37491C9.39221 5.52116 9.46992 10.743 9.58932 10.8987C9.70873 11.0543 15.0158 12.8374 15.2527 12.7793C15.4896 12.7212 18.3213 8.31303 18.3213 8.13678C18.3213 7.96053 14.8376 3.70991 14.6595 3.67053C14.4813 3.63116 9.53057 5.17803 9.45096 5.37491ZM21.5795 6.01616C21.5795 6.01616 20.7986 8.58678 20.7986 8.78366C20.7986 8.97866 21.2743 10.0568 21.4923 11.388C21.7103 12.7193 21.3938 14.718 21.5321 14.7968C21.6705 14.8755 22.3566 14.8362 22.3566 14.8362C22.3566 14.8362 23.0181 12.7793 22.7395 10.1355C22.4609 7.48991 21.5795 6.01616 21.5795 6.01616ZM15.9464 16.2462C15.7872 16.2612 11.6098 19.8105 11.6288 19.9099C11.6477 20.0074 13.2645 22.3643 13.2645 22.3643C13.2645 22.3643 15.2963 22.2049 17.1576 21.2074C19.0188 20.2099 19.7258 19.323 19.7258 19.323C19.7258 19.323 19.9836 16.953 19.885 16.9343C19.7884 16.9118 16.1454 16.2274 15.9464 16.2462ZM2.00591 11.8193C1.89787 11.9074 1.2724 13.2687 1.09423 14.0337C0.916065 14.7968 0.817505 15.5224 0.817505 15.5224C0.817505 15.5224 1.29325 16.8837 2.00591 17.8924C2.88916 19.1412 4.03776 20.0224 4.03776 20.0224C4.03776 20.0224 7.78682 18.8918 7.80767 18.7343C7.82852 18.5768 7.37173 17.2062 7.0552 16.0699C6.73867 14.9337 6.67992 13.6605 6.56051 13.5818C6.4411 13.503 5.23374 13.1318 4.28416 12.7587C3.33457 12.3855 2.12532 11.7218 2.00591 11.8193ZM0.830772 7.09241C0.830772 7.09241 1.86755 7.97928 2.02676 7.97928C2.18597 7.97928 3.19052 6.66303 4.20455 5.86428C5.57112 4.78616 6.24398 4.43366 6.26483 4.29678C6.28378 4.15991 6.87893 0.888032 6.87893 0.888032C6.87893 0.888032 4.68029 1.71116 3.0768 3.53178C1.47331 5.35241 0.830772 7.09241 0.830772 7.09241ZM12.0438 0.0142822C12.0438 0.0142822 13.3081 0.657407 13.7686 0.974282C14.2292 1.29116 14.9078 1.96241 15.1087 1.98303C15.3077 2.00366 18.0579 2.00553 18.0579 2.00553C18.0579 2.00553 16.8107 1.16178 15.429 0.678032C13.7667 0.0949072 12.0438 0.0142822 12.0438 0.0142822Z" fill="#474C4F"/>
</svg>
