<svg width="24" height="24" viewBox="0 0 24 24" fill="none" xmlns="http://www.w3.org/2000/svg">
<path d="M12 0.25C12.6269 0.250001 13.1765 0.419055 13.6572 0.753906L13.6582 0.754883L22.6582 6.92578L22.6611 6.92773C23.0033 7.1572 23.2696 7.44727 23.4629 7.7998C23.656 8.15216 23.7509 8.52286 23.75 8.91406V21.2568C23.75 21.9366 23.4887 22.5175 22.9492 23.0107C22.4091 23.5045 21.7637 23.7508 21 23.75H15C14.6314 23.75 14.3371 23.6379 14.1006 23.4209C13.8943 23.2316 13.7815 23.0093 13.7559 22.7441L13.75 22.6279V15.5215H10.25V22.6289C10.2499 22.9468 10.1357 23.2058 9.89941 23.4219C9.6619 23.639 9.36805 23.7507 9.00098 23.75H3C2.23496 23.75 1.58981 23.5035 1.05078 23.0107C0.512405 22.5185 0.250909 21.9379 0.25 21.2568V8.91406C0.250036 8.52275 0.345862 8.15226 0.539062 7.7998C0.732488 7.4471 0.998574 7.15716 1.33984 6.92773L1.3418 6.92578L10.3418 0.754883L10.3428 0.753906C10.8235 0.419054 11.3731 0.25 12 0.25ZM21.25 8.78223L21.1416 8.70801L12.1416 2.53711L12 2.43945L11.8584 2.53711L2.8584 8.70801L2.75 8.78223V21.5068H7.75V14.4004C7.75 14.0824 7.86442 13.8236 8.10059 13.6084C8.30876 13.4188 8.56012 13.3091 8.86621 13.2842L9.00098 13.2783H15C15.3686 13.2783 15.6628 13.3912 15.9004 13.6084C16.1368 13.8246 16.2508 14.0827 16.25 14.3994V21.5068H21.25V8.78223Z" fill="white" stroke="black" stroke-width="0.5"/>
</svg>
