<svg width="29" height="29" viewBox="0 0 29 29" fill="none" xmlns="http://www.w3.org/2000/svg">
<path d="M9.3646 3.02087C9.3646 2.78052 9.26912 2.55001 9.09917 2.38006C8.92921 2.2101 8.69871 2.11462 8.45835 2.11462C8.218 2.11462 7.98749 2.2101 7.81754 2.38006C7.64758 2.55001 7.5521 2.78052 7.5521 3.02087V4.93004C5.8121 5.069 4.67144 5.40975 3.83285 6.24954C2.99306 7.08812 2.65231 8.23 2.51215 9.96879H26.4879C26.3477 8.22879 26.007 7.08812 25.1672 6.24954C24.3286 5.40975 23.1867 5.069 21.4479 4.92883V3.02087C21.4479 2.78052 21.3525 2.55001 21.1825 2.38006C21.0125 2.2101 20.782 2.11462 20.5417 2.11462C20.3013 2.11462 20.0708 2.2101 19.9009 2.38006C19.7309 2.55001 19.6354 2.78052 19.6354 3.02087V4.84908C18.8319 4.83337 17.9305 4.83337 16.9167 4.83337H12.0834C11.0696 4.83337 10.1681 4.83337 9.3646 4.84908V3.02087Z" fill="white"/>
<path fill-rule="evenodd" clip-rule="evenodd" d="M2.41669 14.5C2.41669 13.4862 2.41669 12.5848 2.4324 11.7812H26.5676C26.5834 12.5848 26.5834 13.4862 26.5834 14.5V16.9167C26.5834 21.4733 26.5834 23.7522 25.1672 25.1672C23.751 26.5821 21.4733 26.5833 16.9167 26.5833H12.0834C7.52673 26.5833 5.24781 26.5833 3.83285 25.1672C2.4179 23.751 2.41669 21.4733 2.41669 16.9167V14.5ZM20.5417 16.9167C20.8622 16.9167 21.1695 16.7894 21.3961 16.5628C21.6227 16.3361 21.75 16.0288 21.75 15.7083C21.75 15.3879 21.6227 15.0805 21.3961 14.8539C21.1695 14.6273 20.8622 14.5 20.5417 14.5C20.2212 14.5 19.9139 14.6273 19.6873 14.8539C19.4607 15.0805 19.3334 15.3879 19.3334 15.7083C19.3334 16.0288 19.4607 16.3361 19.6873 16.5628C19.9139 16.7894 20.2212 16.9167 20.5417 16.9167ZM20.5417 21.75C20.8622 21.75 21.1695 21.6227 21.3961 21.3961C21.6227 21.1695 21.75 20.8621 21.75 20.5417C21.75 20.2212 21.6227 19.9139 21.3961 19.6872C21.1695 19.4606 20.8622 19.3333 20.5417 19.3333C20.2212 19.3333 19.9139 19.4606 19.6873 19.6872C19.4607 19.9139 19.3334 20.2212 19.3334 20.5417C19.3334 20.8621 19.4607 21.1695 19.6873 21.3961C19.9139 21.6227 20.2212 21.75 20.5417 21.75ZM15.7084 15.7083C15.7084 16.0288 15.581 16.3361 15.3544 16.5628C15.1278 16.7894 14.8205 16.9167 14.5 16.9167C14.1795 16.9167 13.8722 16.7894 13.6456 16.5628C13.419 16.3361 13.2917 16.0288 13.2917 15.7083C13.2917 15.3879 13.419 15.0805 13.6456 14.8539C13.8722 14.6273 14.1795 14.5 14.5 14.5C14.8205 14.5 15.1278 14.6273 15.3544 14.8539C15.581 15.0805 15.7084 15.3879 15.7084 15.7083ZM15.7084 20.5417C15.7084 20.8621 15.581 21.1695 15.3544 21.3961C15.1278 21.6227 14.8205 21.75 14.5 21.75C14.1795 21.75 13.8722 21.6227 13.6456 21.3961C13.419 21.1695 13.2917 20.8621 13.2917 20.5417C13.2917 20.2212 13.419 19.9139 13.6456 19.6872C13.8722 19.4606 14.1795 19.3333 14.5 19.3333C14.8205 19.3333 15.1278 19.4606 15.3544 19.6872C15.581 19.9139 15.7084 20.2212 15.7084 20.5417ZM8.45835 16.9167C8.77882 16.9167 9.08617 16.7894 9.31277 16.5628C9.53938 16.3361 9.66669 16.0288 9.66669 15.7083C9.66669 15.3879 9.53938 15.0805 9.31277 14.8539C9.08617 14.6273 8.77882 14.5 8.45835 14.5C8.13788 14.5 7.83054 14.6273 7.60393 14.8539C7.37733 15.0805 7.25002 15.3879 7.25002 15.7083C7.25002 16.0288 7.37733 16.3361 7.60393 16.5628C7.83054 16.7894 8.13788 16.9167 8.45835 16.9167ZM8.45835 21.75C8.77882 21.75 9.08617 21.6227 9.31277 21.3961C9.53938 21.1695 9.66669 20.8621 9.66669 20.5417C9.66669 20.2212 9.53938 19.9139 9.31277 19.6872C9.08617 19.4606 8.77882 19.3333 8.45835 19.3333C8.13788 19.3333 7.83054 19.4606 7.60393 19.6872C7.37733 19.9139 7.25002 20.2212 7.25002 20.5417C7.25002 20.8621 7.37733 21.1695 7.60393 21.3961C7.83054 21.6227 8.13788 21.75 8.45835 21.75Z" fill="white"/>
</svg>
