<svg width="24" height="24" viewBox="0 0 24 24" fill="none" xmlns="http://www.w3.org/2000/svg">
<path d="M3.23077 24H1.38462C1.01739 24 0.66521 23.8736 0.405545 23.6485C0.145879 23.4235 0 23.1183 0 22.8V15.6C0 15.2817 0.145879 14.9765 0.405545 14.7515C0.66521 14.5264 1.01739 14.4 1.38462 14.4H3.23077C3.59799 14.4 3.95017 14.5264 4.20984 14.7515C4.46951 14.9765 4.61538 15.2817 4.61538 15.6V22.8C4.61538 23.1183 4.46951 23.4235 4.20984 23.6485C3.95017 23.8736 3.59799 24 3.23077 24ZM16.1538 24H14.3077C13.9405 24 13.5883 23.8736 13.3286 23.6485C13.069 23.4235 12.9231 23.1183 12.9231 22.8V10.8C12.9231 10.4817 13.069 10.1765 13.3286 9.95147C13.5883 9.72643 13.9405 9.6 14.3077 9.6H16.1538C16.5211 9.6 16.8733 9.72643 17.1329 9.95147C17.3926 10.1765 17.5385 10.4817 17.5385 10.8V22.8C17.5385 23.1183 17.3926 23.4235 17.1329 23.6485C16.8733 23.8736 16.5211 24 16.1538 24ZM22.6154 24H20.7692C20.402 24 20.0498 23.8736 19.7902 23.6485C19.5305 23.4235 19.3846 23.1183 19.3846 22.8V5.2C19.3846 4.88174 19.5305 4.57652 19.7902 4.35147C20.0498 4.12643 20.402 4 20.7692 4H22.6154C22.9826 4 23.3348 4.12643 23.5945 4.35147C23.8541 4.57652 24 4.88174 24 5.2V22.8C24 23.1183 23.8541 23.4235 23.5945 23.6485C23.3348 23.8736 22.9826 24 22.6154 24ZM9.69231 24H7.84615C7.47893 24 7.12675 23.8736 6.86708 23.6485C6.60742 23.4235 6.46154 23.1183 6.46154 22.8V1.2C6.46154 0.88174 6.60742 0.576516 6.86708 0.351472C7.12675 0.126428 7.47893 0 7.84615 0H9.69231C10.0595 0 10.4117 0.126428 10.6714 0.351472C10.931 0.576516 11.0769 0.88174 11.0769 1.2V22.8C11.0769 23.1183 10.931 23.4235 10.6714 23.6485C10.4117 23.8736 10.0595 24 9.69231 24Z" fill="white"/>
</svg>
