<svg width="24" height="24" viewBox="0 0 24 24" fill="none" xmlns="http://www.w3.org/2000/svg">
<g clip-path="url(#clip0_13_119)">
<path d="M21.5812 5.42139C25.2165 10.7126 23.8729 17.9483 18.582 21.5801C13.2907 25.2154 6.05475 23.8725 2.4195 18.5801C-1.21575 13.2889 0.127872 6.05251 5.4195 2.41764C10.7107 -1.21611 17.946 0.127138 21.5782 5.41764" fill="#C3D82E"/>
<path d="M17.001 22.4981C17.001 22.4981 11.451 10.1314 17.3632 1.68787L17.8594 1.96162C17.8594 1.96162 11.6666 10.4456 18.1774 21.8651L17.001 22.4989M2.4225 18.582C2.4225 18.582 7.89112 10.4599 6.384 1.82587L5.7105 2.28899C5.7105 2.28899 8.66175 4.69874 2.00137 17.9685" fill="white"/>
</g>
<defs>
<clipPath id="clip0_13_119">
<rect width="24" height="24" fill="white"/>
</clipPath>
</defs>
</svg>
